<?xml version="1.0" standalone="no"?>
<!DOCTYPE svg PUBLIC "-//W3C//DTD SVG 20010904//EN"
 "http://www.w3.org/TR/2001/REC-SVG-20010904/DTD/svg10.dtd">
<svg version="1.0" xmlns="http://www.w3.org/2000/svg"
 width="512.000000pt" height="512.000000pt" viewBox="0 0 512.000000 512.000000"
 preserveAspectRatio="xMidYMid meet">

<g transform="translate(0.000000,512.000000) scale(0.100000,-0.100000)"
fill="#4A4A4A" stroke="none">
<path d="M1295 4069 c-699 -506 -1271 -926 -1273 -933 -2 -11 933 -2917 958
-2974 l10 -22 1572 2 1572 3 488 1495 c268 822 484 1498 480 1501 -4 3 -131
96 -282 206 -444 322 -2192 1594 -2225 1619 l-31 23 -1269 -920z m2473 -90
c658 -479 1201 -875 1205 -879 7 -6 -186 -625 -199 -639 -2 -2 -65 15 -141 37
-535 160 -1072 257 -1626 293 -235 15 -898 6 -1107 -15 -495 -51 -986 -147
-1424 -281 -65 -20 -122 -32 -126 -28 -4 4 -53 148 -109 318 l-100 310 27 22
c66 53 2388 1733 2395 1733 5 0 547 -392 1205 -871z m-1338 -1274 c0 -25 -1
-25 -90 -25 -89 0 -90 0 -90 25 0 25 1 25 90 25 89 0 90 0 90 -25z m450 0 c0
-25 -1 -25 -85 -25 -84 0 -85 0 -85 25 0 25 1 25 85 25 84 0 85 0 85 -25z
m-910 -19 c0 -22 -5 -25 -57 -31 -32 -3 -70 -8 -85 -10 -20 -3 -28 1 -33 16
-9 28 -4 31 67 39 109 12 108 13 108 -14z m1323 9 c38 -5 47 -10 47 -26 0 -17
-7 -19 -59 -19 -94 0 -121 8 -121 37 0 27 -11 26 133 8z m-1773 -60 c0 -27 0
-27 -104 -45 -64 -11 -76 -8 -76 20 0 15 13 20 73 30 39 6 77 13 82 15 21 7
25 4 25 -20z m2206 3 c57 -10 64 -14 64 -35 0 -27 -5 -27 -105 -10 -60 11 -70
15 -73 35 -4 26 17 28 114 10z m-2656 -91 c0 -20 -8 -24 -82 -40 -65 -14 -83
-15 -90 -5 -16 27 -6 36 60 51 98 22 112 21 112 -6z m3119 -1 c35 -9 46 -17
46 -32 0 -22 -27 -23 -117 -5 -44 10 -58 17 -58 30 0 35 15 35 129 7z m-1430
8 c30 -6 32 -9 29 -43 l-3 -36 -87 -3 -88 -3 0 -229 0 -230 -55 0 -55 0 0 230
0 230 -85 0 -85 0 0 39 c0 33 4 40 23 44 36 7 372 8 406 1z m452 -33 c4 -3 17
-53 29 -111 12 -58 26 -109 30 -113 4 -4 31 42 60 102 l53 111 41 -6 c86 -11
86 -11 86 -52 0 -20 -9 -134 -20 -252 -11 -118 -20 -225 -20 -237 0 -19 -4
-21 -42 -16 -24 3 -45 7 -47 9 -2 2 4 94 14 204 10 110 15 203 12 206 -2 3
-32 -49 -66 -114 l-61 -120 -32 7 c-32 7 -33 8 -55 111 -33 150 -34 153 -38
148 -2 -2 -13 -80 -25 -173 -31 -260 -23 -235 -75 -235 -43 0 -44 1 -40 28 5
28 65 504 65 516 0 8 122 -4 131 -13z m-1221 -37 l0 -45 -54 6 c-66 9 -158 -9
-181 -35 -11 -13 -15 -28 -11 -43 6 -27 43 -45 147 -72 127 -33 169 -72 169
-155 0 -57 -24 -103 -68 -133 -48 -33 -95 -44 -213 -53 -91 -6 -98 -5 -108 14
-6 11 -11 35 -11 52 l0 31 68 -6 c92 -10 175 8 202 42 25 32 25 36 -2 67 -17
19 -46 32 -107 47 -107 26 -157 51 -181 92 -38 62 -17 149 47 188 56 35 112
48 211 48 l92 1 0 -46z m-1365 -45 c4 -11 5 -22 3 -23 -14 -10 -160 -46 -168
-41 -5 3 -10 14 -10 23 0 13 19 23 73 39 91 27 94 27 102 2z m3992 -9 c66 -20
71 -23 63 -43 -9 -26 -3 -26 -103 3 -58 17 -77 27 -72 37 3 8 5 19 5 24 0 6 8
8 18 5 9 -3 49 -14 89 -26z m-564 -35 c88 -20 163 -37 165 -40 10 -9 -10 -75
-22 -75 -7 0 -63 11 -124 25 -61 14 -113 25 -115 25 -7 0 -30 -130 -24 -136 3
-3 54 -16 113 -30 59 -13 109 -26 111 -27 1 -2 -2 -20 -8 -41 -8 -28 -14 -36
-27 -32 -9 3 -59 14 -111 26 -71 15 -97 17 -102 8 -9 -14 -33 -138 -28 -142 2
-2 54 -14 114 -27 l110 -24 -2 -29 c-4 -56 -1 -55 -177 -17 -126 27 -166 39
-166 51 0 8 21 129 47 268 42 222 49 252 66 252 10 0 91 -16 180 -35z m-2979
-235 c27 -121 51 -222 53 -224 2 -2 55 8 119 21 63 14 118 23 120 20 7 -6 23
-77 19 -77 -2 0 -77 -16 -166 -35 -89 -20 -167 -34 -172 -32 -11 3 -140 517
-133 525 6 6 66 20 91 21 18 1 25 -21 69 -219z m1366 -305 c0 -24 -2 -25 -75
-25 -73 0 -75 1 -75 25 0 24 2 25 75 25 73 0 75 -1 75 -25z m402 19 c3 -3 4
-14 1 -25 -5 -17 -14 -19 -79 -19 -72 0 -74 1 -74 25 0 24 2 25 73 25 41 0 76
-3 79 -6z m-800 -39 c4 -19 1 -25 -12 -25 -9 0 -45 -3 -79 -6 -61 -7 -61 -7
-61 19 0 23 4 26 43 30 102 9 104 9 109 -18z m1200 9 c3 -2 4 -13 1 -24 -6
-22 -27 -25 -107 -14 -40 6 -46 10 -46 31 0 24 1 24 73 17 39 -3 75 -8 79 -10z
m-1597 -74 c-2 -4 -28 -10 -57 -14 -29 -3 -63 -9 -74 -12 -17 -4 -22 0 -26 20
-6 28 -11 25 102 44 39 7 46 5 53 -11 4 -10 5 -22 2 -27z m1973 23 c15 -3 22
-13 22 -29 0 -28 2 -27 -76 -14 -81 15 -83 16 -77 40 5 20 10 22 57 16 28 -4
61 -10 74 -13z m-553 -33 c300 -27 644 -82 935 -151 153 -37 432 -117 443
-129 5 -4 6 -17 2 -29 -6 -20 -8 -20 -28 -6 -29 20 -49 19 -79 -5 -20 -15 -44
-20 -114 -22 l-89 -3 -3 -62 c-3 -59 -4 -63 -27 -63 -25 0 -25 0 -25 108 0 59
-4 113 -9 120 -5 9 -29 12 -82 10 l-74 -3 -3 -117 -3 -118 -24 0 -25 0 0 108
c0 71 -4 112 -12 120 -7 7 -40 12 -78 12 -38 0 -71 -5 -78 -12 -8 -8 -12 -49
-12 -120 l0 -108 -25 0 -24 0 -3 118 -3 117 -58 3 c-73 4 -87 -7 -87 -65 0
-40 -2 -44 -22 -41 -21 3 -23 9 -26 77 -2 63 0 79 18 102 20 28 27 84 13 92
-5 3 -29 8 -55 11 -43 6 -48 5 -64 -19 -14 -21 -14 -30 -4 -55 7 -17 16 -30
21 -30 5 0 9 -47 9 -104 0 -57 3 -111 6 -120 5 -13 22 -16 80 -16 83 0 94 9
94 74 0 20 5 36 10 36 6 0 10 -45 10 -115 0 -132 2 -135 92 -135 80 0 81 2 86
134 4 102 7 116 22 116 15 0 18 -14 22 -116 3 -86 8 -118 19 -125 8 -5 40 -9
71 -9 83 0 88 8 88 141 l0 109 25 0 25 0 0 -119 c0 -134 -2 -131 81 -131 78 0
89 10 89 80 l0 60 63 0 c51 0 68 -4 82 -20 10 -11 29 -20 42 -20 12 0 23 -4
23 -10 0 -5 -11 -10 -25 -10 -29 0 -65 -36 -65 -66 0 -12 9 -33 21 -48 l21
-26 -37 -109 c-33 -99 -38 -108 -58 -104 -13 3 -34 -4 -50 -17 -33 -26 -36
-66 -7 -103 27 -34 25 -41 -12 -52 -30 -9 -33 -14 -36 -54 -2 -25 -12 -56 -23
-69 -24 -31 -24 -53 1 -85 20 -25 20 -25 -2 -96 l-21 -71 -24 22 c-20 19 -23
31 -23 99 0 44 5 81 11 84 5 4 14 18 19 31 13 33 -5 70 -42 85 -25 10 -33 9
-56 -8 -32 -24 -42 -82 -18 -103 12 -9 16 -33 16 -97 l0 -84 46 -49 45 -48
-12 -42 -12 -41 -66 3 c-75 3 -88 19 -52 64 29 37 27 78 -5 103 -35 27 -59 26
-89 -4 -30 -29 -32 -54 -5 -88 11 -14 20 -37 20 -51 0 -23 -4 -26 -35 -26
l-35 0 0 72 c0 71 0 73 42 115 27 28 51 43 67 43 35 0 61 28 61 65 0 53 -52
85 -99 60 -30 -15 -41 -33 -41 -69 0 -13 -19 -40 -45 -66 l-45 -44 0 -88 0
-88 -70 0 -70 0 0 88 0 87 268 267 c230 229 272 267 304 272 63 11 89 75 48
116 -42 42 -120 12 -120 -47 0 -22 -51 -79 -280 -308 l-280 -280 0 -98 0 -97
-199 0 c-123 0 -202 4 -206 10 -4 6 31 10 96 10 90 0 106 3 124 20 20 18 23
19 35 5 18 -22 73 -19 95 5 37 41 7 113 -48 112 -23 0 -65 -24 -112 -64 -16
-14 -44 -18 -135 -20 l-115 -3 -3 -30 c-2 -16 -9 -33 -15 -37 -7 -4 -74 -8
-151 -8 l-139 0 26 20 c21 16 40 20 110 20 110 0 117 3 117 51 l0 38 153 3
152 3 3 38 c4 47 23 56 58 28 52 -41 117 -13 117 49 0 61 -65 90 -115 51 -13
-11 -44 -21 -69 -23 l-44 -3 -3 -42 -3 -42 -152 -3 -152 -3 -3 -37 -3 -38 -78
0 c-58 0 -82 4 -91 15 -17 20 -69 19 -92 -2 -25 -23 -24 -77 4 -103 l22 -20
-248 0 -249 0 27 21 c33 26 36 77 6 104 -25 23 -25 46 -1 73 23 27 51 28 84 2
33 -26 65 -25 94 2 29 27 29 65 1 95 -27 28 -69 30 -93 3 -23 -25 -50 -25 -82
0 -36 28 -77 26 -102 -6 -26 -33 -26 -54 -1 -87 11 -14 20 -35 20 -47 0 -12
-9 -33 -20 -47 -27 -34 -25 -59 5 -88 l24 -25 -156 0 c-149 0 -154 1 -135 17
32 27 37 64 12 96 -26 33 -70 36 -107 7 -15 -11 -39 -19 -59 -18 -41 2 -94
-43 -94 -79 0 -18 -6 -23 -25 -23 -25 0 -25 1 -25 87 0 75 3 90 22 110 19 20
31 23 98 23 64 0 80 -3 95 -20 23 -25 55 -25 88 0 14 11 36 20 50 20 14 0 39
12 56 26 l31 26 0 151 0 151 -32 33 c-23 24 -41 33 -65 33 -18 0 -33 4 -33 9
0 5 -14 14 -31 21 -27 11 -33 11 -59 -9 -16 -11 -33 -21 -38 -21 -18 0 -50 47
-56 83 -4 21 -14 41 -22 44 -9 3 -14 21 -14 53 0 68 -7 80 -45 80 -19 0 -39 8
-50 20 -22 24 -72 26 -97 3 -21 -19 -24 -71 -4 -98 18 -25 78 -25 105 -1 18
17 21 17 27 3 3 -9 0 -28 -8 -44 -10 -22 -21 -29 -48 -31 -45 -4 -60 -25 -60
-83 0 -29 -6 -51 -15 -59 -22 -18 -19 -76 5 -100 43 -43 110 -10 110 54 0 18
-7 39 -15 46 -8 7 -15 28 -15 48 l0 35 23 -21 c13 -12 34 -22 47 -22 13 0 41
-17 66 -40 24 -22 52 -40 63 -40 10 0 24 -7 31 -15 16 -19 74 -19 90 0 17 20
66 19 74 -1 3 -9 6 -69 6 -135 0 -117 -1 -120 -24 -130 -20 -10 -29 -8 -52 10
-33 26 -64 27 -97 1 -20 -16 -40 -20 -106 -20 -79 0 -82 -1 -121 -36 l-39 -36
-3 -101 -3 -102 -105 0 c-94 0 -105 2 -108 18 -2 11 6 30 19 43 19 20 32 24
80 24 62 0 69 6 69 63 0 17 6 38 14 46 29 32 30 68 2 95 -30 31 -69 33 -96 6
-23 -23 -26 -72 -6 -93 8 -8 16 -23 18 -33 2 -16 -4 -19 -43 -22 -34 -2 -53
-10 -69 -27 -14 -15 -35 -25 -52 -25 -35 0 -68 -32 -68 -65 0 -24 -3 -25 -59
-25 l-59 0 -41 123 c-23 68 -41 141 -41 165 0 29 -7 53 -20 69 -17 22 -20 41
-20 124 0 55 3 99 7 99 4 0 31 -23 60 -52 50 -49 53 -55 53 -101 0 -34 -6 -57
-20 -74 -39 -50 -11 -113 50 -113 61 0 93 76 50 115 -16 14 -20 31 -20 79 l0
61 -99 99 c-118 117 -133 121 -141 31 l-5 -60 -23 77 c-18 62 -20 82 -11 102
16 35 4 73 -29 90 -24 12 -33 32 -65 133 -21 65 -37 121 -37 126 0 17 87 7
110 -13 33 -28 74 -26 99 6 27 35 26 59 -4 89 -29 30 -54 32 -88 5 -19 -15
-40 -20 -85 -20 -56 0 -60 2 -66 26 -4 15 -3 30 1 34 19 19 383 119 596 165
266 57 610 104 912 125 162 11 720 5 880 -10z m-1817 -46 c3 -18 -6 -23 -70
-37 -73 -16 -87 -13 -88 20 0 12 111 43 140 40 8 -1 16 -12 18 -23z m2735 5
c56 -12 65 -21 48 -47 -13 -21 -151 13 -151 37 0 23 10 32 29 27 9 -3 42 -10
74 -17z m-563 -64 c0 -8 -6 -15 -14 -15 -17 0 -28 14 -19 24 12 12 33 6 33 -9z
m-2565 -40 c0 -15 -15 -24 -72 -41 -76 -23 -73 -24 -77 17 -1 13 99 48 129 46
13 -1 20 -9 20 -22z m3507 3 c67 -21 76 -30 60 -56 -7 -10 -23 -8 -78 9 -38
12 -71 23 -72 24 -6 5 9 45 15 45 4 0 37 -10 75 -22z m-3479 -223 c8 -18 -11
-31 -25 -17 -11 11 -3 32 12 32 4 0 10 -7 13 -15z m3513 4 c10 -17 -13 -36
-27 -22 -12 12 -4 33 11 33 5 0 12 -5 16 -11z m-16 -159 c0 -5 -5 -10 -11 -10
-5 0 -7 5 -4 10 3 6 8 10 11 10 2 0 4 -4 4 -10z m-2832 -117 c-4 -22 -22 -20
-26 1 -2 10 3 16 13 16 10 0 15 -7 13 -17z m2625 -88 c1 -5 -6 -11 -15 -13
-11 -2 -18 3 -18 13 0 17 30 18 33 0z m-2513 -71 c0 -8 -7 -14 -15 -14 -15 0
-21 21 -9 33 10 9 24 -2 24 -19z m2595 -94 c-5 -8 -11 -8 -17 -2 -6 6 -7 16
-3 22 5 8 11 8 17 2 6 -6 7 -16 3 -22z m-2395 -15 c0 -8 -7 -15 -15 -15 -8 0
-15 7 -15 15 0 8 7 15 15 15 8 0 15 -7 15 -15z m-312 -42 c-4 -22 -22 -20 -26
1 -2 10 3 16 13 16 10 0 15 -7 13 -17z m2492 -158 c0 -8 -7 -15 -15 -15 -8 0
-15 7 -15 15 0 8 7 15 15 15 8 0 15 -7 15 -15z m-2932 -87 c-3 -7 -11 -13 -18
-13 -7 0 -15 6 -17 13 -3 7 4 12 17 12 13 0 20 -5 18 -12z m2802 -23 c0 -8 -6
-15 -14 -15 -17 0 -28 14 -19 24 12 12 33 6 33 -9z m-2452 -42 c-4 -22 -22
-20 -26 1 -2 10 3 16 13 16 10 0 15 -7 13 -17z m402 3 c0 -8 -4 -17 -9 -21
-12 -7 -24 12 -16 25 9 15 25 12 25 -4z m356 3 c3 -6 1 -16 -5 -22 -9 -9 -14
-8 -21 3 -9 15 -4 30 10 30 5 0 12 -5 16 -11z m180 0 c10 -17 -13 -36 -27 -22
-12 12 -4 33 11 33 5 0 12 -5 16 -11z m1042 -6 c-4 -22 -22 -20 -26 1 -2 10 3
16 13 16 10 0 15 -7 13 -17z m465 -144 c-17 -17 -37 -1 -22 17 8 10 15 12 23
4 7 -7 7 -13 -1 -21z m-463 -14 c0 -8 -7 -15 -15 -15 -8 0 -15 7 -15 15 0 8 7
15 15 15 8 0 15 -7 15 -15z m-1580 -20 c0 -8 -7 -15 -15 -15 -8 0 -15 7 -15
15 0 8 7 15 15 15 8 0 15 -7 15 -15z m360 0 c0 -8 -6 -15 -14 -15 -17 0 -28
14 -19 24 12 12 33 6 33 -9z m530 0 c0 -8 -7 -15 -15 -15 -8 0 -15 7 -15 15 0
8 7 15 15 15 8 0 15 -7 15 -15z m-1490 -51 c0 -8 -7 -14 -15 -14 -15 0 -21 21
-9 33 10 9 24 -2 24 -19z m545 -4 c18 -20 17 -20 -37 -20 -60 0 -74 6 -57 27
17 20 73 16 94 -7z"/>
<path d="M2533 4289 c-46 -67 -233 -380 -233 -390 0 -5 16 -9 36 -9 44 0 46 6
-46 -151 -38 -66 -70 -124 -70 -130 0 -5 13 -9 29 -9 17 0 32 -4 35 -9 3 -4
-33 -77 -79 -162 -47 -85 -85 -157 -85 -161 0 -4 24 -8 54 -10 l53 -3 -78
-138 c-44 -76 -79 -142 -79 -148 0 -5 73 -9 175 -9 l175 0 0 -70 0 -70 145 0
145 0 0 70 0 70 170 0 c106 0 170 4 170 10 0 5 -31 65 -69 133 -95 168 -93
157 -32 157 28 0 51 4 51 8 0 5 -38 78 -85 162 -86 158 -89 169 -37 170 12 0
22 4 22 9 0 5 -34 68 -75 140 -41 71 -75 132 -75 135 0 3 18 6 40 8 l40 3
-126 205 c-69 113 -129 211 -133 219 -6 10 -16 2 -38 -30z"/>
<path d="M1198 3753 c-10 -2 -18 -8 -18 -12 0 -4 14 -76 31 -160 17 -84 29
-154 27 -155 -2 -2 -70 -16 -153 -32 -137 -27 -150 -32 -153 -52 -2 -13 3 -25
11 -28 8 -3 75 6 148 20 73 14 134 24 135 23 1 -1 -43 -127 -99 -280 -88 -243
-98 -280 -86 -293 13 -12 30 -11 134 10 204 40 182 40 190 -2 12 -68 13 -71
43 -62 15 4 26 11 26 16 -1 5 -5 28 -9 51 -8 49 -26 40 163 78 68 14 128 27
133 30 24 15 -5 55 -186 255 -107 118 -191 218 -187 221 4 4 62 17 129 29 131
24 160 37 150 64 -8 21 -27 20 -185 -10 -73 -14 -136 -23 -138 -21 -2 2 -18
74 -36 160 -18 92 -35 157 -42 156 -6 -1 -19 -3 -28 -6z m315 -658 c82 -91
122 -142 114 -146 -7 -4 -118 -28 -247 -53 -129 -25 -243 -48 -253 -50 -14 -4
-17 0 -11 17 10 35 145 409 160 445 l14 34 48 -54 c27 -29 105 -116 175 -193z"/>
<path d="M3544 3546 c-4 -9 15 -44 45 -88 29 -41 51 -83 51 -97 0 -31 -28
-183 -35 -189 -4 -5 -114 11 -173 25 -14 3 -41 33 -72 79 -54 79 -67 91 -81
77 -6 -6 7 -32 32 -68 80 -114 80 -97 -5 -154 -81 -55 -93 -68 -79 -82 5 -5
41 13 90 47 l80 55 64 -11 c35 -6 88 -15 117 -21 l52 -10 84 -123 84 -122 -13
-69 c-7 -39 -10 -73 -7 -77 4 -3 23 -8 42 -10 l35 -3 14 73 14 73 122 84 122
84 116 -21 116 -21 53 -79 c49 -73 65 -87 81 -72 4 4 -18 42 -48 85 -30 43
-55 82 -55 86 0 4 34 31 75 58 69 47 84 63 69 78 -3 3 -44 -19 -90 -50 l-83
-55 -96 17 c-109 19 -102 8 -77 140 l17 90 78 53 c42 29 77 60 77 68 0 24 -17
16 -100 -41 l-79 -56 -50 75 c-56 83 -68 94 -77 72 -3 -9 16 -46 47 -90 l52
-75 -12 -73 c-23 -141 -18 -134 -161 -231 -72 -48 -134 -86 -138 -83 -4 2 -47
62 -96 134 l-88 130 18 101 18 102 78 55 c43 30 78 61 78 69 0 23 -11 19 -89
-35 -40 -27 -77 -50 -81 -50 -5 0 -32 33 -60 74 -55 83 -67 94 -76 72z"/>
<path d="M758 3340 c-27 -17 -48 -36 -48 -43 0 -6 14 -34 31 -60 32 -52 61
-60 67 -19 4 28 9 28 113 -3 111 -33 139 -33 139 -1 0 26 2 25 -167 72 -61 17
-74 26 -53 39 13 8 -6 45 -23 45 -7 0 -33 -14 -59 -30z"/>
<path d="M725 3142 c-27 -15 -51 -35 -53 -44 -2 -10 9 -38 24 -63 20 -35 32
-45 48 -43 15 2 21 10 20 26 0 12 2 22 6 22 4 0 54 -13 113 -30 112 -31 140
-31 135 4 -3 21 -7 23 -180 71 -53 15 -56 18 -45 35 9 16 9 23 -3 34 -13 13
-21 12 -65 -12z"/>
<path d="M2480 1744 c0 -9 -9 -32 -21 -51 -18 -29 -19 -38 -9 -62 29 -71 130
-53 130 24 0 18 -6 38 -14 45 -8 6 -16 21 -18 33 -4 29 -68 39 -68 11z m50
-89 c0 -8 -7 -15 -15 -15 -8 0 -15 7 -15 15 0 8 7 15 15 15 8 0 15 -7 15 -15z"/>
<path d="M2660 1735 c0 -14 -4 -25 -9 -25 -5 0 -14 -14 -21 -30 -31 -74 50
-125 113 -72 23 21 22 74 -3 97 -11 10 -20 26 -20 37 0 13 -8 18 -30 18 -25 0
-30 -4 -30 -25z m50 -80 c0 -8 -6 -15 -14 -15 -17 0 -28 14 -19 24 12 12 33 6
33 -9z"/>
<path d="M2840 1744 c0 -9 -9 -27 -20 -41 -11 -14 -20 -36 -20 -48 0 -12 9
-34 20 -48 17 -22 20 -40 20 -138 l0 -113 -130 -128 c-97 -95 -136 -128 -155
-128 -62 0 -87 -81 -38 -120 47 -37 113 -2 113 60 0 22 26 53 135 159 l135
131 0 126 c0 111 2 129 20 151 25 32 25 63 2 94 -10 13 -21 32 -25 42 -8 22
-57 24 -57 1z m43 -89 c1 -5 -6 -11 -15 -13 -11 -2 -18 3 -18 13 0 17 30 18
33 0z m-310 -620 c1 -5 -6 -11 -15 -13 -11 -2 -18 3 -18 13 0 17 30 18 33 0z"/>
<path d="M3017 1718 c-3 -18 -5 -107 -6 -198 l-2 -165 -127 -127 c-98 -99
-133 -128 -153 -128 -33 0 -59 -29 -59 -66 0 -35 8 -47 37 -63 46 -24 103 19
103 76 0 10 61 79 135 153 l135 135 0 201 c0 201 0 202 -22 208 -35 9 -35 8
-41 -26z m-267 -683 c0 -8 -7 -15 -15 -15 -8 0 -15 7 -15 15 0 8 7 15 15 15 8
0 15 -7 15 -15z"/>
<path d="M1870 1720 c-8 -5 -40 -9 -70 -9 -30 1 -72 -2 -92 -6 -33 -6 -38 -11
-38 -35 0 -56 68 -79 117 -40 15 12 41 20 62 20 28 0 44 7 64 28 15 15 27 33
27 40 0 14 -49 16 -70 2z m-120 -46 c0 -8 -7 -14 -15 -14 -15 0 -21 21 -9 33
10 9 24 -2 24 -19z"/>
<path d="M2092 1718 c-6 -6 -12 -36 -12 -65 l0 -53 -215 0 c-202 0 -215 1
-225 19 -5 11 -10 32 -10 46 0 23 -4 26 -27 23 -25 -3 -28 -8 -31 -44 -2 -33
2 -48 23 -73 l27 -31 259 0 c239 0 259 1 260 18 1 9 2 37 3 62 l1 45 103 3
102 3 0 -282 c0 -266 -1 -282 -20 -306 -27 -34 -25 -69 5 -98 31 -32 59 -32
90 0 30 29 32 64 5 98 -19 23 -20 43 -22 333 l-3 309 -150 3 c-109 2 -154 -1
-163 -10z m306 -686 c2 -7 -6 -12 -17 -12 -21 0 -27 11 -14 24 9 9 26 2 31
-12z"/>
<path d="M3205 1720 c-47 -17 -63 -74 -31 -109 13 -14 16 -42 16 -147 l0 -130
-73 -72 c-52 -52 -80 -72 -98 -72 -55 0 -80 -79 -38 -121 16 -16 28 -20 52
-15 42 9 57 24 57 58 0 24 17 48 85 118 l85 88 0 137 c0 121 2 139 20 164 16
21 19 33 12 52 -16 41 -53 62 -87 49z m35 -65 c0 -8 -7 -15 -15 -15 -8 0 -15
7 -15 15 0 8 7 15 15 15 8 0 15 -7 15 -15z m-202 -532 c-4 -22 -22 -20 -26 1
-2 10 3 16 13 16 10 0 15 -7 13 -17z"/>
<path d="M3517 1684 c-13 -13 -7 -52 11 -75 23 -27 73 -30 100 -6 14 13 38 17
102 17 101 0 96 12 -14 34 -98 20 -116 20 -116 0 0 -9 -7 -14 -17 -12 -11 2
-17 11 -15 21 2 9 -1 17 -7 17 -5 0 -16 2 -23 5 -8 3 -17 2 -21 -1z"/>
<path d="M1418 1625 l-41 -45 -79 0 c-57 0 -84 4 -94 15 -10 10 -25 12 -47 8
-54 -10 -67 -21 -67 -58 0 -64 72 -93 121 -49 11 10 41 14 98 14 l83 0 54 55
c37 37 54 62 54 80 0 40 -35 32 -82 -20z m-248 -80 c0 -8 -7 -15 -15 -15 -8 0
-15 7 -15 15 0 8 7 15 15 15 8 0 15 -7 15 -15z"/>
<path d="M1283 1633 c-31 -6 -29 -23 1 -23 31 0 56 10 56 21 0 9 -17 10 -57 2z"/>
<path d="M2197 1592 c-21 -23 -22 -75 -2 -92 23 -19 20 -102 -5 -125 -11 -10
-20 -31 -20 -47 0 -17 -9 -41 -20 -55 -11 -14 -20 -33 -20 -43 0 -10 9 -29 20
-43 11 -14 20 -39 20 -57 0 -18 -9 -43 -20 -57 -27 -34 -25 -59 5 -88 30 -30
54 -31 89 -4 32 25 35 70 6 106 -11 14 -20 36 -20 48 0 12 9 34 20 48 11 14
20 36 20 50 0 13 -9 36 -20 50 -25 32 -25 33 5 69 18 22 25 41 25 74 0 30 7
54 21 74 24 31 21 67 -7 94 -21 22 -77 20 -97 -2z m63 -47 c0 -8 -7 -15 -15
-15 -8 0 -15 7 -15 15 0 8 7 15 15 15 8 0 15 -7 15 -15z m-40 -310 c0 -8 -6
-15 -14 -15 -17 0 -28 14 -19 24 12 12 33 6 33 -9z m0 -200 c0 -8 -6 -15 -14
-15 -17 0 -28 14 -19 24 12 12 33 6 33 -9z"/>
<path d="M955 1553 c-11 -3 -23 -8 -28 -12 -4 -4 28 -42 72 -84 l79 -77 142 0
143 0 38 -35 39 -35 108 0 108 0 34 35 34 35 133 0 133 0 0 -140 c0 -128 -2
-143 -21 -170 -20 -26 -21 -32 -9 -60 16 -39 53 -55 91 -40 44 19 57 92 20
115 -7 4 -11 60 -11 154 0 135 -2 151 -21 175 l-20 26 -163 0 -162 0 -29 -30
c-28 -29 -32 -30 -120 -30 -88 0 -92 1 -120 30 l-29 30 -146 0 -146 0 -59 60
c-33 33 -62 59 -65 59 -3 -1 -14 -3 -25 -6z m1085 -518 c0 -8 -7 -15 -15 -15
-8 0 -15 7 -15 15 0 8 7 15 15 15 8 0 15 -7 15 -15z"/>
<path d="M1480 1537 c-13 -7 -29 -25 -34 -40 -21 -59 67 -114 115 -71 29 26
25 78 -7 103 -31 24 -40 25 -74 8z m50 -63 c0 -8 -7 -14 -15 -14 -15 0 -21 21
-9 33 10 9 24 -2 24 -19z"/>
<path d="M2481 1537 c-37 -18 -48 -63 -24 -96 41 -54 123 -32 123 33 0 37 -7
49 -37 65 -27 14 -32 14 -62 -2z m49 -63 c0 -8 -7 -14 -15 -14 -15 0 -21 21
-9 33 10 9 24 -2 24 -19z"/>
<path d="M2645 1525 c-14 -13 -25 -35 -25 -48 0 -33 35 -67 70 -67 65 0 94 79
44 119 -35 27 -59 26 -89 -4z m58 -56 c-17 -17 -37 -1 -22 17 8 10 15 12 23 4
7 -7 7 -13 -1 -21z"/>
<path d="M2465 1345 c-14 -13 -25 -33 -25 -45 0 -28 43 -70 72 -70 40 0 68 27
68 66 0 68 -68 97 -115 49z m60 -45 c0 -7 -6 -15 -12 -17 -8 -3 -13 4 -13 17
0 13 5 20 13 18 6 -3 12 -11 12 -18z"/>
<path d="M866 1284 c-28 -27 -31 -63 -7 -94 12 -18 21 -44 21 -66 0 -35 11
-49 180 -219 174 -175 180 -182 180 -221 0 -26 -7 -51 -20 -67 -11 -14 -20
-37 -20 -51 0 -59 79 -88 120 -44 25 28 26 58 0 91 -15 19 -20 40 -20 84 l0
58 -174 174 c-97 97 -177 186 -181 199 -4 18 0 34 14 53 26 35 27 81 3 102
-23 21 -76 22 -96 1z m64 -49 c0 -8 -6 -15 -14 -15 -17 0 -28 14 -19 24 12 12
33 6 33 -9z m350 -679 c-13 -13 -35 7 -25 24 5 8 11 8 21 -1 10 -8 12 -15 4
-23z"/>
<path d="M1040 1280 c-11 -11 -20 -31 -20 -44 0 -13 9 -35 20 -49 14 -17 20
-40 20 -74 0 -42 5 -53 33 -81 26 -26 41 -32 75 -32 36 0 49 6 87 41 39 36 45
47 45 83 0 25 8 51 20 66 25 32 25 65 0 90 -41 41 -120 12 -120 -44 0 -13 9
-35 20 -49 24 -30 25 -55 4 -85 -25 -37 -52 -46 -80 -27 -31 20 -34 83 -4 110
43 39 11 115 -50 115 -17 0 -39 -9 -50 -20z m68 -48 c2 -7 -6 -12 -17 -12 -21
0 -27 11 -14 24 9 9 26 2 31 -12z m175 3 c1 -5 -6 -11 -15 -13 -11 -2 -18 3
-18 13 0 17 30 18 33 0z"/>
<path d="M1382 1278 c-9 -9 -12 -84 -12 -278 l0 -266 43 -42 43 -42 158 0
c143 0 160 -2 183 -20 36 -28 77 -26 102 6 27 35 26 59 -4 89 -29 30 -64 32
-98 5 -22 -18 -40 -20 -168 -20 -141 0 -143 0 -171 27 l-28 27 0 228 0 228
195 0 195 0 0 -54 c0 -38 -6 -60 -20 -79 -61 -78 39 -171 103 -95 22 27 22 49
-3 81 -16 21 -20 40 -20 109 0 52 -5 89 -12 96 -17 17 -469 17 -486 0z m478
-243 c0 -8 -7 -15 -15 -15 -8 0 -15 7 -15 15 0 8 7 15 15 15 8 0 15 -7 15 -15z
m0 -361 c0 -8 -7 -14 -15 -14 -15 0 -21 21 -9 33 10 9 24 -2 24 -19z"/>
<path d="M3272 1243 c-71 -60 10 -161 86 -107 15 11 22 25 22 50 0 63 -62 96
-108 57z m58 -59 c0 -8 -7 -14 -15 -14 -15 0 -21 21 -9 33 10 9 24 -2 24 -19z"/>
<path d="M3426 1239 c-50 -39 -22 -119 42 -119 35 0 72 37 72 72 0 29 -41 68
-70 68 -10 0 -29 -9 -44 -21z m60 -40 c10 -17 -13 -36 -27 -22 -12 12 -4 33
11 33 5 0 12 -5 16 -11z"/>
<path d="M3686 1191 c-25 -28 -17 -79 16 -104 23 -17 31 -18 57 -8 52 22 62
93 17 123 -21 15 -73 8 -90 -11z m64 -46 c0 -8 -7 -15 -15 -15 -8 0 -15 7 -15
15 0 8 7 15 15 15 8 0 15 -7 15 -15z"/>
<path d="M3797 1083 c-16 -16 -45 -18 -302 -18 l-285 0 -58 -58 -58 -57 -76 0
c-72 0 -78 -2 -106 -30 -25 -25 -39 -30 -76 -30 -25 0 -46 4 -46 9 0 5 -14 14
-31 21 -27 11 -33 11 -57 -7 -35 -26 -42 -81 -13 -107 25 -22 66 -24 89 -3 9
8 43 17 75 19 48 4 63 10 90 36 31 30 37 32 108 32 l75 0 54 55 54 55 274 0
c260 0 274 -1 301 -21 70 -52 147 43 85 105 -21 21 -75 20 -97 -1z m66 -48 c1
-5 -6 -11 -15 -13 -11 -2 -18 3 -18 13 0 17 30 18 33 0z m-1113 -180 c0 -8 -7
-15 -15 -15 -8 0 -15 7 -15 15 0 8 7 15 15 15 8 0 15 -7 15 -15z"/>
<path d="M3241 944 c-27 -35 -26 -59 4 -89 29 -30 64 -32 98 -5 14 11 28 20
31 20 3 0 15 -9 26 -20 27 -27 66 -25 95 5 30 30 31 54 4 89 -25 32 -66 34
-103 5 l-26 -20 -26 20 c-37 29 -78 27 -103 -5z m65 -35 c10 -17 -13 -36 -27
-22 -12 12 -4 33 11 33 5 0 12 -5 16 -11z m154 -9 c0 -11 -4 -20 -9 -20 -14 0
-23 18 -16 30 10 17 25 11 25 -10z"/>
<path d="M2353 920 c-43 -17 -56 -72 -25 -111 23 -27 73 -30 100 -6 23 21 65
22 81 3 18 -21 45 -25 79 -10 59 24 51 106 -11 127 -23 8 -34 5 -58 -12 -33
-24 -66 -27 -88 -7 -23 20 -53 26 -78 16z m45 -62 c-3 -7 -11 -13 -18 -13 -7
0 -15 6 -17 13 -3 7 4 12 17 12 13 0 20 -5 18 -12z m175 -3 c1 -5 -6 -11 -15
-13 -11 -2 -18 3 -18 13 0 17 30 18 33 0z"/>
<path d="M3696 909 c-17 -13 -26 -30 -26 -48 0 -33 -75 -111 -107 -111 -60 0
-95 -78 -53 -120 42 -42 120 -8 120 52 0 32 79 108 112 108 29 0 42 9 57 38
17 31 -1 75 -35 91 -33 15 -37 14 -68 -10z m54 -54 c0 -8 -7 -15 -15 -15 -8 0
-15 7 -15 15 0 8 7 15 15 15 8 0 15 -7 15 -15z m-174 -166 c10 -17 -13 -36
-27 -22 -12 12 -4 33 11 33 5 0 12 -5 16 -11z"/>
<path d="M2155 725 c-30 -30 -31 -54 -4 -89 39 -50 119 -22 119 42 0 34 -37
72 -69 72 -12 0 -33 -11 -46 -25z m58 -56 c-17 -17 -37 -1 -22 17 8 10 15 12
23 4 7 -7 7 -13 -1 -21z"/>
<path d="M2335 725 c-46 -45 -19 -115 45 -115 65 0 94 79 44 119 -35 27 -59
26 -89 -4z m61 -36 c10 -17 -13 -36 -27 -22 -12 12 -4 33 11 33 5 0 12 -5 16
-11z"/>
<path d="M2690 730 c-28 -28 -27 -84 2 -104 31 -22 71 -20 93 4 16 17 31 20
110 20 88 0 92 -1 120 -30 l29 -30 -29 -30 c-28 -29 -32 -30 -120 -30 -79 0
-94 3 -110 20 -22 24 -62 26 -93 4 -47 -32 -16 -124 42 -124 13 0 35 9 49 20
21 17 40 20 128 20 l103 0 43 42 c35 34 43 49 43 78 0 29 -8 44 -43 78 l-43
42 -103 0 c-88 0 -107 3 -128 20 -14 11 -36 20 -49 20 -13 0 -33 -9 -44 -20z
m60 -56 c0 -8 -7 -14 -15 -14 -15 0 -21 21 -9 33 10 9 24 -2 24 -19z m-2 -171
c-4 -22 -22 -20 -26 1 -2 10 3 16 13 16 10 0 15 -7 13 -17z"/>
<path d="M3180 730 c-26 -26 -26 -81 -2 -103 26 -24 71 -21 99 5 l23 22 30
-22 c36 -27 74 -28 100 -2 29 29 26 74 -6 99 -33 26 -54 26 -87 1 -14 -11 -28
-20 -32 -20 -4 0 -18 9 -32 20 -14 11 -36 20 -49 20 -13 0 -33 -9 -44 -20z
m60 -56 c0 -8 -7 -14 -15 -14 -15 0 -21 21 -9 33 10 9 24 -2 24 -19z m156 15
c10 -17 -13 -36 -27 -22 -12 12 -4 33 11 33 5 0 12 -5 16 -11z"/>
<path d="M2510 550 c-41 -41 -12 -120 45 -120 30 0 75 41 75 68 0 59 -79 93
-120 52z m64 -38 c2 -4 1 -14 -4 -22 -7 -11 -12 -12 -21 -3 -6 6 -8 16 -5 22
8 13 23 14 30 3z"/>
<path d="M1073 425 c-27 -19 -37 -59 -22 -88 16 -30 28 -37 65 -37 63 0 88 79
38 119 -32 25 -52 26 -81 6z m57 -61 c0 -8 -7 -14 -15 -14 -15 0 -21 21 -9 33
10 9 24 -2 24 -19z"/>
</g>
</svg>
