<?xml version="1.0" standalone="no"?>
<!DOCTYPE svg PUBLIC "-//W3C//DTD SVG 20010904//EN"
 "http://www.w3.org/TR/2001/REC-SVG-20010904/DTD/svg10.dtd">
<svg version="1.0" xmlns="http://www.w3.org/2000/svg"
 width="512.000000pt" height="512.000000pt" viewBox="0 0 512.000000 512.000000"
 preserveAspectRatio="xMidYMid meet">

<g transform="translate(0.000000,512.000000) scale(0.100000,-0.100000)"
fill="#000000" stroke="none">
<path d="M0 2560 l0 -2560 2560 0 2560 0 0 2560 0 2560 -2560 0 -2560 0 0
-2560z m3838 1496 c1197 -871 1263 -921 1257 -945 -3 -14 -221 -685 -484
-1491 l-478 -1465 -1574 0 -1573 0 -222 685 c-122 377 -340 1047 -483 1490
l-262 805 28 23 c85 69 2510 1821 2518 1819 6 -1 579 -416 1273 -921z"/>
<path d="M1354 3984 c-665 -482 -1210 -880 -1212 -884 -3 -8 192 -622 203
-640 3 -4 62 10 132 31 996 304 2079 384 3123 233 325 -47 704 -131 1025 -228
82 -25 150 -44 151 -43 4 3 202 610 206 629 2 11 -378 293 -1200 891 -661 482
-1206 879 -1211 882 -5 3 -553 -389 -1217 -871z m1339 128 c70 -115 127 -212
127 -215 0 -4 -16 -7 -35 -7 -19 0 -35 -5 -35 -10 0 -6 32 -65 70 -131 39 -67
72 -126 73 -132 1 -7 -15 -14 -35 -17 l-38 -5 89 -162 89 -163 -41 0 c-74 0
-74 -4 12 -156 l79 -139 -174 -3 -174 -2 0 -75 0 -75 -140 0 -140 0 0 75 0 75
-174 2 -173 3 79 139 c85 150 86 156 16 156 -21 0 -38 3 -38 8 0 4 38 76 85
161 47 84 85 155 85 157 0 2 -15 4 -33 4 -19 0 -36 3 -39 6 -4 3 27 63 68 134
41 71 74 134 74 139 0 5 -16 11 -35 13 l-35 3 53 90 c81 141 201 335 207 335
3 0 62 -94 133 -208z m-1429 -514 c16 -84 31 -156 35 -160 3 -3 71 7 151 23
80 16 150 27 157 24 19 -7 16 -35 -4 -42 -10 -4 -76 -18 -147 -33 l-129 -26
201 -223 c111 -124 202 -230 202 -237 0 -16 -13 -19 -185 -53 l-130 -26 4 -30
c9 -66 7 -80 -16 -83 -17 -3 -22 3 -28 35 -11 70 -8 69 -157 40 -164 -33 -178
-34 -178 -6 0 12 43 141 96 286 52 146 93 268 89 271 -3 3 -65 -6 -138 -20
-134 -26 -157 -27 -157 -2 0 20 28 30 174 59 71 14 132 27 135 30 2 3 -7 69
-22 148 -33 174 -33 177 -4 177 22 0 25 -8 51 -152z m2355 -128 c30 -44 56
-80 59 -80 2 0 39 25 82 54 70 49 90 57 90 36 0 -4 -36 -31 -80 -60 -70 -46
-80 -57 -86 -89 -3 -20 -12 -67 -19 -105 l-12 -69 65 -96 c100 -146 123 -176
133 -173 6 1 68 43 139 93 85 59 131 98 135 112 2 12 11 58 20 101 l15 80 -55
83 c-60 90 -61 93 -42 93 6 -1 35 -34 62 -75 28 -41 54 -75 58 -75 4 0 43 25
87 55 50 35 81 52 85 45 4 -6 5 -13 4 -14 -2 -1 -35 -24 -74 -51 -38 -27 -73
-51 -78 -55 -8 -7 -47 -213 -42 -219 3 -2 48 -11 101 -21 l96 -18 80 55 c50
34 84 51 90 45 5 -5 -21 -29 -69 -62 -43 -29 -80 -55 -82 -56 -2 -2 22 -40 53
-85 35 -50 53 -86 48 -91 -6 -6 -31 22 -65 71 -31 43 -64 82 -74 85 -10 2 -63
12 -119 22 l-100 17 -120 -83 c-65 -45 -122 -87 -126 -93 -3 -5 -9 -33 -12
-61 -9 -70 -17 -80 -55 -71 -35 8 -35 6 -20 90 l12 62 -79 113 c-43 63 -82
118 -85 123 -4 6 -59 20 -123 32 l-116 22 -81 -54 c-48 -33 -85 -51 -90 -46
-6 6 23 31 71 64 44 30 80 58 80 62 0 4 -23 42 -51 83 -31 46 -47 80 -42 85 8
8 49 -45 114 -144 7 -10 200 -50 207 -42 3 3 14 50 24 106 l19 102 -55 82
c-48 73 -57 96 -37 95 3 -1 30 -37 60 -80z m-2779 -128 c0 -10 -5 -23 -11 -29
-11 -11 -3 -14 159 -59 64 -17 84 -36 64 -56 -9 -9 -42 -3 -125 20 -63 18
-117 32 -120 32 -4 0 -6 -10 -4 -22 1 -16 -4 -24 -18 -26 -14 -2 -26 9 -42 37
-32 55 -29 72 15 98 46 28 82 30 82 5z m-43 -198 c2 -7 -3 -19 -12 -27 -14
-15 -9 -18 52 -36 38 -11 89 -25 115 -32 50 -12 74 -31 63 -49 -10 -16 -41
-12 -150 19 l-100 29 -5 -26 c-3 -14 -11 -27 -17 -29 -13 -5 -73 81 -73 103 0
17 80 63 104 61 11 -1 21 -7 23 -13z"/>
<path d="M1255 3268 c-54 -146 -145 -407 -145 -417 0 -15 -8 -16 270 39 138
28 253 50 255 50 19 0 -16 44 -166 210 -94 105 -175 190 -179 190 -4 0 -20
-33 -35 -72z"/>
<path d="M2272 2733 c-29 -4 -33 -8 -30 -31 2 -21 8 -27 26 -26 12 0 54 1 92
2 l70 2 0 30 0 30 -62 -2 c-35 0 -78 -3 -96 -5z"/>
<path d="M2700 2713 l0 -30 87 -6 c47 -3 90 -4 95 -1 4 3 8 16 8 30 0 20 -5
24 -27 24 -16 0 -58 3 -95 7 l-68 6 0 -30z"/>
<path d="M1833 2703 c-40 -4 -43 -6 -43 -34 l0 -31 88 7 c48 4 90 9 95 12 4 2
7 15 7 29 0 23 -3 24 -52 22 -29 -1 -72 -3 -95 -5z"/>
<path d="M3155 2689 c-4 -12 -3 -25 2 -29 4 -5 47 -11 96 -15 l87 -7 0 29 c0
30 -1 30 -67 36 -103 10 -111 9 -118 -14z"/>
<path d="M1425 2649 c-94 -17 -93 -17 -87 -44 5 -29 15 -30 111 -14 77 13 82
17 75 47 -7 24 -18 25 -99 11z"/>
<path d="M3608 2635 c-6 -31 -7 -31 72 -44 36 -6 75 -14 86 -16 17 -4 23 1 27
23 3 15 4 28 3 30 -3 2 -165 32 -177 32 -4 0 -9 -11 -11 -25z"/>
<path d="M964 2558 c-81 -19 -82 -19 -74 -46 4 -15 11 -26 16 -26 41 7 168 35
171 38 8 8 -10 56 -21 55 -6 -1 -48 -10 -92 -21z"/>
<path d="M4059 2552 c-5 -14 -8 -27 -5 -29 6 -6 178 -45 181 -41 1 2 5 15 8
29 6 25 5 26 -84 46 l-91 20 -9 -25z"/>
<path d="M2320 2515 l0 -45 85 0 c47 0 86 -1 86 -2 1 -2 5 -106 8 -233 l6
-230 49 -3 c32 -2 52 1 57 10 5 7 9 113 9 236 l0 222 85 0 85 0 0 45 0 45
-235 0 -235 0 0 -45z"/>
<path d="M1802 2529 c-62 -11 -118 -37 -150 -72 -50 -53 -46 -147 8 -197 26
-25 53 -34 203 -75 67 -18 89 -47 69 -89 -16 -35 -77 -49 -190 -44 l-93 4 7
-46 c4 -25 9 -49 12 -54 7 -12 219 0 267 16 22 7 58 31 81 53 98 94 52 229
-90 266 -160 41 -193 59 -177 101 12 34 71 50 170 46 l83 -3 -5 43 c-2 24 -7
45 -9 48 -11 10 -136 12 -186 3z"/>
<path d="M3075 2518 c-10 -49 -67 -520 -62 -524 2 -3 24 -6 48 -7 l44 -2 21
175 c12 96 23 186 26 200 2 16 12 -11 27 -75 35 -154 33 -150 72 -153 l34 -3
58 117 c32 64 60 115 62 113 2 -3 -5 -94 -15 -204 -10 -110 -18 -201 -17 -201
1 -1 23 -5 49 -9 l46 -7 6 43 c3 24 13 123 21 219 8 96 17 200 20 232 3 31 2
59 -2 61 -5 3 -37 9 -71 13 l-61 7 -55 -112 -54 -111 -16 69 c-9 38 -21 91
-26 119 -11 47 -13 50 -48 56 -74 12 -101 8 -107 -16z"/>
<path d="M522 2442 c-80 -25 -83 -27 -77 -51 4 -14 8 -27 10 -29 4 -5 175 49
179 57 6 9 -12 51 -21 50 -4 -1 -45 -13 -91 -27z"/>
<path d="M4504 2445 c-11 -29 4 -41 86 -64 69 -20 83 -22 91 -10 19 29 3 43
-71 66 -89 27 -99 28 -106 8z"/>
<path d="M3850 2433 c0 -3 -23 -125 -51 -271 -27 -145 -49 -266 -47 -267 4 -4
324 -75 337 -75 12 0 31 79 21 85 -5 3 -56 16 -115 29 -59 14 -108 26 -110 28
-2 2 4 35 12 74 l16 70 113 -25 c63 -13 116 -22 119 -19 3 3 6 22 8 44 l2 38
-110 24 c-60 14 -111 25 -112 26 -8 6 24 119 34 123 10 4 158 -25 225 -43 13
-4 20 5 28 37 6 22 9 43 6 46 -5 5 -351 83 -368 83 -4 0 -8 -3 -8 -7z"/>
<path d="M955 2375 c-27 -6 -49 -16 -49 -21 4 -29 128 -520 133 -526 3 -3 83
11 176 31 l170 38 -3 39 c-2 21 -6 42 -10 46 -4 3 -58 -5 -121 -18 -78 -17
-117 -21 -121 -14 -4 6 -28 107 -55 225 -28 123 -53 214 -59 214 -6 -1 -33 -7
-61 -14z"/>
<path d="M2332 1883 c-51 -4 -53 -5 -50 -31 2 -21 8 -27 26 -26 12 0 49 1 83
2 60 2 60 2 57 30 -3 30 -14 32 -116 25z"/>
<path d="M2703 1883 c-16 -3 -23 -12 -23 -27 0 -22 5 -24 75 -30 42 -4 80 -4
85 -1 6 3 10 17 10 31 0 22 -4 24 -42 24 -24 0 -52 2 -63 4 -11 2 -30 2 -42
-1z"/>
<path d="M1995 1863 c-119 -14 -116 -13 -113 -41 3 -26 5 -27 53 -24 102 5
117 10 113 39 -3 29 -9 32 -53 26z"/>
<path d="M3080 1836 c0 -29 12 -34 100 -38 64 -3 65 -2 68 23 3 23 -1 27 -35
32 -21 4 -59 7 -85 7 -44 0 -48 -2 -48 -24z"/>
<path d="M1550 1808 c-65 -12 -74 -19 -65 -48 6 -20 11 -21 53 -15 112 15 112
15 112 46 0 33 -5 34 -100 17z"/>
<path d="M3487 1813 c-4 -3 -7 -16 -7 -28 0 -19 8 -24 57 -34 82 -16 101 -14
108 10 9 27 -5 36 -70 44 -27 4 -57 8 -66 11 -8 2 -18 1 -22 -3z"/>
<path d="M2110 1769 c-412 -30 -852 -109 -1255 -225 -104 -31 -191 -56 -192
-58 -1 -1 1 -15 6 -32 7 -26 12 -30 62 -35 44 -5 59 -3 81 12 53 37 118 14
118 -40 0 -59 -54 -87 -101 -52 -33 24 -135 31 -126 9 2 -7 21 -65 42 -129 32
-97 43 -118 67 -132 22 -13 28 -23 28 -49 0 -18 -4 -39 -9 -47 -9 -14 37 -171
51 -171 4 0 8 27 8 60 0 94 15 91 131 -27 l99 -100 0 -66 c0 -37 4 -67 8 -67
17 0 32 -49 22 -74 -17 -45 -63 -58 -100 -28 -27 22 -30 65 -6 91 11 12 16 36
16 72 0 53 -1 56 -60 114 l-60 59 0 -108 c0 -94 3 -111 21 -134 14 -19 19 -35
15 -57 -4 -20 8 -74 37 -165 l43 -135 62 -3 c59 -3 62 -2 62 20 0 34 27 68 55
68 13 0 37 11 52 24 21 17 44 26 79 28 58 4 67 21 33 68 -19 24 -21 35 -13 58
5 15 22 33 38 41 25 12 31 11 55 -6 32 -25 39 -68 15 -95 -10 -10 -21 -40 -24
-66 l-5 -47 -60 -3 c-69 -4 -95 -21 -95 -64 l0 -28 110 0 110 0 0 99 0 98 45
42 c45 41 45 41 125 41 67 0 86 4 110 21 26 20 32 20 59 9 17 -7 31 -16 31
-21 0 -16 47 -10 61 7 20 25 23 231 3 262 -18 27 -38 28 -71 2 -32 -25 -58
-25 -90 0 -14 11 -33 20 -42 20 -10 0 -32 16 -51 35 -22 23 -43 35 -60 35 -15
0 -35 9 -45 20 -28 30 -45 25 -45 -13 0 -21 8 -41 20 -52 42 -38 13 -105 -45
-105 -57 0 -87 67 -45 105 14 12 20 33 22 74 3 54 4 56 33 59 40 5 75 39 75
74 0 31 -20 37 -40 13 -19 -23 -76 -19 -94 7 -23 33 -19 64 10 87 33 26 45 26
76 2 13 -11 40 -21 59 -23 34 -3 34 -3 37 -59 2 -41 8 -62 22 -74 11 -10 20
-30 20 -44 0 -15 13 -38 32 -58 l31 -32 25 19 c32 25 63 25 95 0 14 -11 39
-20 55 -20 21 0 38 -9 56 -31 25 -30 26 -34 26 -174 l0 -143 -35 -31 c-23 -19
-47 -31 -65 -31 -16 0 -32 -5 -35 -11 -15 -24 -50 -27 -83 -8 -24 14 -53 19
-106 19 -66 0 -74 -2 -100 -29 -25 -26 -27 -33 -24 -107 3 -78 3 -79 31 -82
21 -3 27 1 27 15 0 11 15 33 33 51 26 25 41 32 73 32 28 0 47 6 59 20 37 41
105 10 105 -48 0 -57 -64 -81 -113 -42 -14 11 -33 20 -42 20 -25 0 -55 -19
-55 -35 0 -13 89 -15 680 -15 l680 0 0 21 c0 11 5 29 10 40 10 17 22 19 121
19 l110 0 50 40 c56 44 89 50 119 20 58 -58 -20 -142 -88 -94 -22 15 -24 15
-37 -2 -11 -16 -30 -20 -119 -22 -187 -6 -115 -22 99 -22 l205 0 0 97 0 97
279 281 c219 219 282 288 288 315 6 22 19 41 36 50 24 13 30 13 55 0 54 -31
34 -120 -27 -120 -21 0 -82 -55 -299 -273 l-272 -272 0 -88 0 -87 70 0 70 0 0
86 0 85 50 53 c34 36 50 61 50 79 0 29 32 57 65 57 25 0 65 -39 65 -62 0 -28
-40 -68 -69 -68 -18 0 -39 -12 -64 -38 -36 -37 -37 -39 -37 -116 l0 -77 37 3
c46 4 54 26 24 64 -40 51 -17 114 42 114 31 0 67 -32 67 -59 0 -10 -9 -30 -20
-44 -11 -14 -20 -37 -20 -51 0 -25 1 -26 69 -26 68 0 69 0 80 31 17 50 14 62
-29 104 l-40 39 0 81 c0 68 -4 86 -20 105 -56 64 30 150 90 90 11 -11 20 -31
20 -44 0 -13 -9 -35 -20 -49 -29 -36 -28 -144 1 -181 11 -14 24 -26 29 -26 9
0 50 115 50 141 0 9 -7 22 -15 29 -19 16 -19 60 0 86 8 10 15 33 15 51 0 49 9
63 41 63 36 0 39 29 9 67 -11 14 -20 34 -20 44 0 30 36 59 73 59 l34 0 32 103
c36 116 37 129 15 147 -10 9 -14 26 -12 49 3 35 16 47 73 67 17 6 15 8 -15 16
-19 5 -42 16 -51 24 -10 9 -38 14 -77 14 l-62 0 0 -52 c0 -76 -5 -79 -91 -76
l-74 3 -3 118 -3 117 -29 0 -29 0 -3 -117 -3 -118 -75 0 -75 0 -3 118 -3 117
-29 0 -29 0 -3 -117 -3 -118 -75 0 -75 0 -3 118 c-2 108 -4 117 -22 117 -16 0
-19 -8 -22 -52 l-3 -53 -75 0 -75 0 -3 110 c-2 94 -6 113 -23 131 -14 15 -19
32 -17 55 3 32 5 34 45 37 78 6 106 -34 63 -88 -16 -20 -20 -41 -20 -107 l0
-83 30 0 c29 0 30 1 30 49 0 35 4 51 16 55 27 10 99 7 112 -6 8 -8 12 -51 12
-126 l0 -113 28 3 27 3 3 115 c2 76 7 117 15 122 7 4 37 8 67 8 30 0 60 -4 67
-8 8 -5 13 -46 15 -122 l3 -115 28 -3 27 -3 0 119 c0 100 3 121 16 126 22 9
117 7 131 -2 8 -5 13 -46 15 -122 l3 -115 28 -3 c27 -3 27 -3 27 57 0 75 11
82 115 80 58 -1 80 2 93 15 21 19 54 21 84 5 23 -13 24 -12 33 21 6 25 3 27
-107 59 -462 136 -845 209 -1306 246 -193 16 -735 18 -932 4z m430 -25 c0 -9
9 -27 20 -41 11 -14 20 -36 20 -49 0 -30 -33 -64 -63 -64 -61 0 -88 66 -47
117 11 14 20 32 20 39 0 8 11 14 25 14 16 0 25 -6 25 -16z m180 -4 c0 -12 9
-34 21 -49 32 -44 5 -101 -48 -101 -54 0 -82 61 -48 106 8 10 15 29 15 42 0
18 6 22 30 22 24 0 30 -4 30 -20z m184 -17 c42 -77 41 -72 18 -103 -20 -26
-22 -42 -22 -156 l0 -127 -140 -142 c-101 -102 -140 -147 -140 -165 0 -33 -28
-60 -62 -60 -33 0 -68 31 -68 60 0 28 44 70 72 70 16 0 62 39 150 127 l128
128 0 118 c0 104 -3 122 -20 144 -11 14 -20 31 -20 38 0 7 9 24 20 38 11 14
20 32 20 41 0 28 47 20 64 -11z m166 -191 l0 -207 -135 -135 c-99 -99 -135
-141 -135 -159 0 -56 -70 -81 -110 -41 -40 40 -20 96 38 106 30 5 60 29 165
132 l127 127 0 192 0 193 25 0 25 0 0 -208z m-1130 189 c0 -5 -13 -23 -29 -40
-22 -24 -38 -31 -66 -31 -22 0 -47 -8 -62 -20 -14 -11 -36 -20 -49 -20 -55 0
-87 81 -35 88 15 3 21 0 16 -8 -4 -6 -1 -17 5 -26 17 -20 43 1 34 29 -6 18 -3
19 37 13 28 -4 58 -1 84 9 47 17 65 18 65 6z m458 -3 c9 -9 12 -93 12 -315 0
-293 1 -305 21 -332 22 -31 20 -59 -7 -86 -20 -20 -68 -19 -88 1 -20 20 -21
78 -1 94 13 11 15 57 15 301 l0 289 -105 0 -104 0 -3 -62 -3 -63 -251 -3 -252
-2 -31 35 c-22 25 -31 46 -31 70 0 19 3 35 8 35 4 0 17 3 30 6 20 6 22 3 22
-28 0 -66 11 -69 246 -66 l209 3 3 60 c2 33 9 63 15 67 21 13 281 10 295 -4z
m872 -18 c11 -11 20 -31 20 -44 0 -13 -9 -35 -20 -49 -18 -22 -20 -40 -20
-164 l0 -138 -80 -80 c-59 -59 -80 -86 -80 -106 0 -61 -89 -81 -119 -27 -25
44 -6 81 47 92 34 8 57 25 112 82 l70 72 0 122 c0 107 -2 125 -20 147 -11 14
-20 36 -20 49 0 31 33 64 65 64 14 0 34 -9 45 -20z m296 -41 c-1 -29 24 -37
31 -10 5 18 10 20 47 14 22 -3 64 -12 91 -19 l50 -12 -66 -1 c-50 -1 -73 -6
-92 -21 -54 -42 -115 -10 -108 58 0 6 11 12 24 12 18 0 23 -5 23 -21z m-2066
-15 c0 -8 -23 -40 -51 -70 l-52 -54 -87 0 c-74 0 -90 -3 -105 -20 -37 -41
-115 -11 -115 44 0 31 17 44 66 52 30 4 43 2 53 -10 10 -12 32 -16 86 -16 l72
0 39 44 c27 31 47 44 67 45 18 1 27 -4 27 -15z m-174 -19 c-11 -8 -29 -15 -40
-15 -27 0 -9 17 24 23 14 2 27 5 30 5 3 1 -4 -5 -14 -13z m962 -31 c29 -20 30
-74 2 -99 -15 -14 -20 -31 -20 -70 0 -39 -5 -56 -20 -70 -11 -10 -20 -27 -20
-37 0 -11 9 -31 20 -45 11 -14 20 -33 20 -43 0 -10 -9 -29 -20 -43 -11 -14
-20 -40 -20 -60 0 -21 7 -41 20 -52 11 -10 20 -29 20 -42 0 -52 -72 -82 -112
-46 -22 20 -24 76 -3 93 9 7 15 29 15 55 0 26 -6 48 -15 55 -20 16 -19 60 1
89 10 13 19 37 20 54 2 17 13 40 24 52 26 27 26 79 0 112 -26 33 -25 63 0 91
24 26 57 28 88 6z m-1238 -99 l54 -55 139 0 140 0 38 -35 c38 -34 41 -35 127
-35 88 0 88 0 122 35 l34 35 151 0 c207 0 195 11 195 -186 0 -141 2 -156 20
-174 40 -40 11 -110 -47 -110 -58 0 -82 63 -43 113 18 22 20 40 20 161 l0 136
-138 0 -138 0 -29 -30 c-29 -30 -29 -30 -145 -30 -116 0 -116 0 -145 30 l-29
30 -144 0 -144 0 -79 77 c-56 54 -75 79 -67 85 29 18 56 6 108 -47z m510 25
c11 -11 20 -31 20 -44 0 -27 -42 -66 -71 -66 -27 0 -59 36 -59 67 0 57 69 84
110 43z m1004 -2 c23 -33 19 -64 -10 -87 -33 -26 -58 -27 -84 -1 -24 24 -26
67 -3 92 23 26 78 24 97 -4z m169 10 c9 -7 19 -25 22 -40 5 -21 1 -33 -19 -52
-29 -30 -52 -33 -84 -10 -27 18 -30 69 -5 96 19 21 62 24 86 6z m-170 -191
c24 -27 18 -66 -14 -90 -68 -50 -139 50 -72 102 30 24 58 20 86 -12z m-1609
-58 c31 -25 33 -57 6 -92 -38 -49 -31 -60 160 -252 l180 -181 0 -66 c0 -47 4
-69 16 -78 25 -22 14 -81 -18 -100 -25 -13 -31 -13 -55 0 -42 24 -52 63 -25
100 15 20 22 43 22 77 l0 48 -175 175 c-162 162 -175 177 -175 211 0 21 -8 47
-20 62 -27 34 -26 82 2 101 30 21 50 20 82 -5z m167 10 c29 -15 41 -54 27 -84
-6 -14 -15 -25 -20 -25 -13 0 -9 -95 4 -108 35 -35 108 15 108 73 0 19 -4 35
-9 35 -5 0 -14 13 -21 30 -10 25 -10 34 4 55 36 55 116 36 116 -29 0 -18 -7
-39 -15 -46 -9 -7 -15 -29 -15 -51 0 -32 -8 -48 -42 -85 -41 -44 -42 -45 -97
-42 -50 3 -57 6 -78 37 -15 23 -23 49 -23 78 0 28 -7 53 -20 72 -42 55 19 123
81 90z m747 -98 c2 -65 7 -90 22 -109 39 -49 15 -112 -42 -112 -34 0 -68 31
-68 63 0 13 9 32 20 42 16 15 20 31 20 87 l0 68 -195 0 -195 0 0 -237 c0 -306
-16 -283 201 -283 127 0 159 3 169 15 17 20 69 19 92 -2 10 -9 18 -27 18 -40
0 -61 -53 -89 -101 -54 -26 19 -42 21 -189 21 l-161 0 -42 39 -42 40 -3 243
c-2 134 0 258 3 276 l6 32 242 -2 242 -3 3 -84z m1498 35 c21 -33 15 -65 -17
-89 -61 -45 -133 38 -82 95 24 27 79 24 99 -6z m149 10 c27 -19 24 -74 -4 -98
-29 -23 -53 -23 -82 0 -25 21 -30 71 -9 96 15 20 70 21 95 2z m263 -42 c27
-18 30 -69 5 -96 -21 -24 -68 -23 -93 2 -58 58 20 142 88 94z m110 -110 c15
-10 22 -25 22 -46 0 -63 -61 -89 -113 -48 -24 19 -40 20 -288 20 l-262 0 -58
-55 -58 -55 -75 0 c-73 0 -78 -1 -115 -35 -32 -30 -46 -35 -86 -35 -32 0 -55
-6 -72 -20 -14 -11 -36 -20 -49 -20 -31 0 -64 33 -64 65 0 33 33 65 68 65 16
0 37 -9 47 -20 29 -32 80 -26 126 15 38 34 42 35 117 35 l78 0 54 55 54 55
287 0 c273 0 287 1 304 20 22 24 53 26 83 4z m-547 -140 c21 -19 35 -18 69 7
26 20 32 20 60 9 53 -22 54 -100 1 -118 -21 -7 -35 -7 -52 4 -43 24 -49 26
-61 20 -7 -4 -24 -13 -37 -20 -32 -19 -79 -3 -87 30 -19 74 50 118 107 68z
m-916 -44 c10 -11 28 -20 40 -20 12 0 34 9 48 20 50 39 107 15 107 -46 0 -57
-68 -85 -105 -44 -10 11 -30 20 -45 20 -15 0 -35 -9 -45 -20 -37 -41 -107 -12
-107 45 0 57 70 86 107 45z m1353 4 c45 -31 14 -114 -43 -114 -38 0 -106 -69
-114 -116 -9 -52 -48 -76 -88 -54 -63 35 -48 120 20 120 43 0 117 72 117 113
0 55 61 84 108 51z m-1524 -186 c22 -32 20 -55 -9 -83 -29 -30 -58 -32 -85 -5
-24 24 -26 67 -3 92 23 26 78 24 97 -4z m162 14 c26 -17 35 -51 22 -79 -30
-64 -118 -48 -118 22 0 18 7 41 16 49 16 17 61 21 80 8z m363 -6 c9 -10 43
-15 127 -18 l115 -3 41 -43 c36 -39 40 -48 35 -80 -5 -26 -19 -49 -46 -74
l-40 -38 -109 0 c-85 0 -112 -3 -122 -15 -20 -25 -77 -19 -96 9 -21 33 -15 65
19 90 l28 21 39 -23 c33 -18 54 -22 131 -22 81 0 96 3 116 22 29 27 29 45 1
75 -19 21 -30 23 -112 23 -75 0 -98 -4 -133 -22 l-42 -23 -28 21 c-34 25 -40
57 -19 90 19 28 75 34 95 10z m491 -1 c7 -8 21 -15 32 -15 11 0 26 7 34 15 19
18 64 20 87 3 9 -7 19 -25 22 -40 5 -21 1 -33 -19 -52 -30 -31 -55 -33 -89 -6
-32 25 -41 25 -76 -1 -62 -46 -130 25 -85 89 18 26 75 30 94 7z m-1027 -175
c27 -22 72 -27 82 -9 24 38 99 27 115 -17 24 -62 -41 -109 -99 -73 -17 10 -41
19 -53 19 -52 0 -77 -69 -38 -105 40 -37 10 -105 -47 -105 -55 0 -85 70 -47
111 9 10 17 30 17 44 0 14 -8 34 -17 44 -29 32 -16 90 24 104 27 10 37 7 63
-13z m365 -7 c17 -23 15 -68 -4 -87 -24 -24 -80 -20 -98 6 -23 32 -20 55 10
84 19 20 31 24 52 19 15 -3 33 -13 40 -22z m856 6 c49 -39 24 -109 -39 -109
-18 0 -38 7 -45 15 -7 8 -23 15 -36 15 -19 0 -23 -6 -26 -37 l-3 -38 -152 -3
-152 -3 -3 -42 -3 -42 -102 -5 c-77 -4 -106 -9 -120 -22 -11 -10 -34 -18 -51
-18 -56 0 -82 70 -42 110 25 25 60 25 93 0 20 -16 40 -20 96 -20 l71 0 0 33
c0 54 10 57 167 57 l143 0 0 26 c0 46 17 64 61 64 26 0 50 7 66 20 32 25 44
25 77 -1z m-2304 -139 c26 -26 25 -51 -1 -84 -37 -47 -109 -23 -109 36 0 62
67 91 110 48z"/>
<path d="M2493 1664 c-9 -23 13 -40 32 -24 12 10 13 16 4 26 -15 18 -28 18
-36 -2z"/>
<path d="M2673 1664 c-8 -21 13 -42 28 -27 13 13 5 43 -11 43 -6 0 -13 -7 -17
-16z"/>
<path d="M2853 1664 c-8 -21 13 -42 28 -27 13 13 5 43 -11 43 -6 0 -13 -7 -17
-16z"/>
<path d="M2541 1046 c-9 -10 -8 -16 4 -26 19 -16 41 1 32 24 -8 20 -21 20 -36
2z"/>
<path d="M2721 1047 c-14 -17 3 -41 23 -34 9 4 16 13 16 21 0 19 -26 28 -39
13z"/>
<path d="M2363 1044 c-8 -21 13 -42 28 -27 13 13 5 43 -11 43 -6 0 -13 -7 -17
-16z"/>
<path d="M3203 1664 c-7 -20 17 -37 34 -23 15 13 6 39 -13 39 -8 0 -17 -7 -21
-16z"/>
<path d="M3011 1136 c-14 -17 -7 -36 14 -36 22 0 29 20 13 36 -13 13 -16 13
-27 0z"/>
<path d="M1141 1556 c-9 -10 -8 -16 4 -26 19 -16 41 1 32 24 -8 20 -21 20 -36
2z"/>
<path d="M2231 1557 c-14 -17 3 -41 23 -34 9 4 16 13 16 21 0 19 -26 28 -39
13z"/>
<path d="M2191 1251 c-15 -10 -8 -41 9 -41 15 0 25 29 14 40 -5 5 -15 5 -23 1z"/>
<path d="M2183 1044 c-8 -21 13 -42 28 -27 13 13 5 43 -11 43 -6 0 -13 -7 -17
-16z"/>
<path d="M2010 1046 c-13 -17 -6 -36 15 -36 19 0 26 27 11 39 -10 8 -17 7 -26
-3z"/>
<path d="M1493 1484 c-7 -20 17 -37 34 -23 15 13 6 39 -13 39 -8 0 -17 -7 -21
-16z"/>
<path d="M2495 1490 c-4 -6 -1 -17 5 -26 15 -18 42 0 33 22 -6 16 -29 19 -38
4z"/>
<path d="M2677 1493 c-14 -13 -6 -33 13 -33 13 0 20 7 20 20 0 19 -20 27 -33
13z"/>
<path d="M2495 1310 c-4 -7 -3 -16 3 -22 14 -14 45 -2 40 15 -6 16 -34 21 -43
7z"/>
<path d="M901 1251 c-15 -10 -8 -41 9 -41 15 0 25 29 14 40 -5 5 -15 5 -23 1z"/>
<path d="M1250 571 c0 -15 6 -21 21 -21 14 0 19 5 17 17 -5 26 -38 29 -38 4z"/>
<path d="M1073 1244 c-8 -21 13 -42 28 -27 13 13 5 43 -11 43 -6 0 -13 -7 -17
-16z"/>
<path d="M1253 1244 c-8 -21 13 -42 28 -27 13 13 5 43 -11 43 -6 0 -13 -7 -17
-16z"/>
<path d="M1831 1047 c-14 -17 3 -41 23 -34 9 4 16 13 16 21 0 19 -26 28 -39
13z"/>
<path d="M1825 690 c-4 -7 -3 -16 3 -22 14 -14 45 -2 40 15 -6 16 -34 21 -43
7z"/>
<path d="M3295 1200 c-4 -7 -3 -16 3 -22 14 -14 45 -2 40 15 -6 16 -34 21 -43
7z"/>
<path d="M3450 1191 c0 -15 6 -21 21 -21 25 0 22 33 -4 38 -12 2 -17 -3 -17
-17z"/>
<path d="M3721 1157 c-14 -17 3 -41 23 -34 9 4 16 13 16 21 0 19 -26 28 -39
13z"/>
<path d="M3831 1046 c-9 -10 -8 -16 4 -26 19 -16 41 1 32 24 -8 20 -21 20 -36
2z"/>
<path d="M2717 866 c-8 -19 15 -37 32 -26 17 10 7 40 -13 40 -7 0 -16 -6 -19
-14z"/>
<path d="M3275 910 c-8 -14 3 -30 21 -30 8 0 14 9 14 20 0 21 -24 28 -35 10z"/>
<path d="M3430 900 c0 -15 5 -20 18 -18 9 2 17 10 17 18 0 8 -8 16 -17 18 -13
2 -18 -3 -18 -18z"/>
<path d="M2363 864 c-8 -21 13 -42 28 -27 13 13 5 43 -11 43 -6 0 -13 -7 -17
-16z"/>
<path d="M2541 866 c-9 -10 -8 -16 4 -26 19 -16 41 1 32 24 -8 20 -21 20 -36
2z"/>
<path d="M3721 866 c-8 -10 -8 -16 2 -24 17 -14 42 2 34 22 -8 20 -21 20 -36
2z"/>
<path d="M3540 681 c0 -15 6 -21 21 -21 25 0 22 33 -4 38 -12 2 -17 -3 -17
-17z"/>
<path d="M2187 693 c-14 -13 -6 -33 13 -33 13 0 20 7 20 20 0 19 -20 27 -33
13z"/>
<path d="M2367 694 c-14 -15 -6 -34 14 -34 14 0 19 5 17 17 -3 18 -20 27 -31
17z"/>
<path d="M2715 690 c-4 -7 -3 -16 3 -22 14 -14 45 -2 40 15 -6 16 -34 21 -43
7z"/>
<path d="M2715 510 c-4 -7 -3 -16 3 -22 14 -14 45 -2 40 15 -6 16 -34 21 -43
7z"/>
<path d="M3205 690 c-4 -7 -3 -16 3 -22 14 -14 45 -2 40 15 -6 16 -34 21 -43
7z"/>
<path d="M3367 693 c-14 -13 -6 -33 13 -33 13 0 20 7 20 20 0 19 -20 27 -33
13z"/>
<path d="M2182 503 c5 -26 38 -29 38 -4 0 15 -6 21 -21 21 -14 0 -19 -5 -17
-17z"/>
<path d="M2360 500 c0 -13 7 -20 20 -20 13 0 20 7 20 20 0 13 -7 20 -20 20
-13 0 -20 -7 -20 -20z"/>
<path d="M2191 341 c-15 -10 -8 -41 9 -41 15 0 25 29 14 40 -5 5 -15 5 -23 1z"/>
<path d="M2540 500 c0 -15 5 -20 18 -18 9 2 17 10 17 18 0 8 -8 16 -17 18 -13
2 -18 -3 -18 -18z"/>
<path d="M3405 510 c-4 -7 -3 -16 3 -22 14 -14 45 -2 40 15 -6 16 -34 21 -43
7z"/>
<path d="M2721 337 c-14 -17 3 -41 23 -34 9 4 16 13 16 21 0 19 -26 28 -39 13z"/>
<path d="M1093 374 c-7 -20 17 -37 34 -23 15 13 6 39 -13 39 -8 0 -17 -7 -21
-16z"/>
<path d="M1140 1726 c-38 -10 -46 -16 -48 -39 -4 -32 2 -33 99 -11 54 12 69
19 65 31 -3 8 -6 19 -6 24 0 12 -55 10 -110 -5z"/>
<path d="M3877 1718 c-4 -12 -4 -24 -2 -26 2 -2 38 -12 80 -22 64 -15 77 -16
81 -4 2 8 6 20 8 28 4 11 -13 19 -64 30 -89 21 -97 20 -103 -6z"/>
<path d="M3383 1664 c-9 -23 13 -40 32 -24 12 10 13 16 4 26 -15 18 -28 18
-36 -2z"/>
<path d="M765 1626 c-58 -18 -69 -25 -67 -42 6 -34 18 -35 96 -12 55 16 75 26
71 36 -3 7 -5 20 -5 28 0 18 -10 17 -95 -10z"/>
<path d="M4270 1625 c-6 -14 -10 -28 -10 -30 0 -7 143 -46 155 -41 7 2 15 14
18 25 4 18 -3 23 -66 42 -40 12 -75 23 -80 26 -4 2 -12 -8 -17 -22z"/>
<path d="M850 1391 c0 -15 6 -21 21 -21 25 0 22 33 -4 38 -12 2 -17 -3 -17
-17z"/>
<path d="M4367 1403 c-14 -13 -6 -33 13 -33 13 0 20 7 20 20 0 19 -20 27 -33
13z"/>
<path d="M4360 1235 c0 -8 5 -15 10 -15 6 0 10 7 10 15 0 8 -4 15 -10 15 -5 0
-10 -7 -10 -15z"/>
<path d="M1521 1136 c-14 -17 -7 -36 14 -36 22 0 29 20 13 36 -13 13 -16 13
-27 0z"/>
<path d="M4143 1044 c-8 -21 13 -42 28 -27 13 13 5 43 -11 43 -6 0 -13 -7 -17
-16z"/>
<path d="M1627 976 c-8 -19 15 -37 32 -26 17 10 7 40 -13 40 -7 0 -16 -6 -19
-14z"/>
<path d="M4230 880 c0 -23 25 -27 33 -6 7 16 -1 26 -20 26 -7 0 -13 -9 -13
-20z"/>
<path d="M1831 866 c-8 -10 -8 -16 2 -24 17 -14 42 2 34 22 -8 20 -21 20 -36
2z"/>
<path d="M1515 820 c-4 -7 -3 -16 3 -22 14 -14 45 -2 40 15 -6 16 -34 21 -43
7z"/>
<path d="M4004 669 c-3 -6 0 -17 8 -25 13 -13 16 -13 27 0 7 8 10 20 6 26 -8
13 -32 13 -41 -1z"/>
<path d="M4160 615 c0 -8 5 -15 10 -15 6 0 10 7 10 15 0 8 -4 15 -10 15 -5 0
-10 -7 -10 -15z"/>
<path d="M1077 584 c-14 -15 -6 -34 14 -34 14 0 19 5 17 17 -3 18 -20 27 -31
17z"/>
<path d="M3873 554 c-8 -21 13 -42 28 -27 13 13 5 43 -11 43 -6 0 -13 -7 -17
-16z"/>
<path d="M1425 510 c-4 -7 -3 -16 3 -22 14 -14 45 -2 40 15 -6 16 -34 21 -43
7z"/>
<path d="M1825 510 c-4 -7 -3 -16 3 -22 14 -14 45 -2 40 15 -6 16 -34 21 -43
7z"/>
<path d="M3877 383 c-14 -13 -7 -33 11 -33 24 0 32 8 25 26 -5 15 -25 19 -36
7z"/>
<path d="M3404 359 c-3 -6 0 -17 8 -25 13 -13 16 -13 27 0 7 8 10 20 6 26 -8
13 -32 13 -41 -1z"/>
<path d="M1831 337 c-14 -17 3 -41 23 -34 9 4 16 13 16 21 0 19 -26 28 -39 13z"/>
<path d="M1225 290 c-4 -7 -3 -16 3 -22 14 -14 45 -2 40 15 -6 16 -34 21 -43
7z"/>
</g>
</svg>
